<?xml version="1.0" encoding="utf-8"?>
<!-- Generator: Adobe Illustrator 27.4.1, SVG Export Plug-In . SVG Version: 6.00 Build 0)  -->
<svg version="1.1" id="Layer_1" xmlns="http://www.w3.org/2000/svg" xmlns:xlink="http://www.w3.org/1999/xlink" x="0px" y="0px"
	 viewBox="0 0 37 39" style="enable-background:new 0 0 37 39;" xml:space="preserve">
<style type="text/css">
	.st0{fill:none;stroke:#FFFFFF;stroke-width:1.5;stroke-miterlimit:10;}
	.st1{fill:#FFFFFF;stroke:#FFFFFF;stroke-width:1.5;stroke-miterlimit:10;}
</style>
<path class="st0" d="M8,30.2c2.5,0,4.5-2,4.5-4.5s-2-4.5-4.5-4.5c-2.5,0-4.5,2-4.5,4.5S5.6,30.2,8,30.2z"/>
<path class="st1" d="M11.6,10.2c0.7,0,1.2-0.5,1.2-1.2c0-0.7-0.5-1.2-1.2-1.2c-0.7,0-1.2,0.5-1.2,1.2C10.4,9.6,10.9,10.2,11.6,10.2z
	"/>
<path class="st1" d="M18.5,10.2c0.7,0,1.2-0.5,1.2-1.2c0-0.7-0.5-1.2-1.2-1.2S17.3,8.3,17.3,9C17.3,9.6,17.9,10.2,18.5,10.2z"/>
<path class="st1" d="M25.5,10.2c0.7,0,1.2-0.5,1.2-1.2c0-0.7-0.5-1.2-1.2-1.2S24.3,8.3,24.3,9C24.3,9.6,24.8,10.2,25.5,10.2z"/>
<path class="st0" d="M0.7,38.7c1.2-2.9,4-4.9,7.3-4.9s6.1,2,7.3,4.8"/>
<path class="st0" d="M29,30.2c2.5,0,4.5-2,4.5-4.5s-2-4.5-4.5-4.5c-2.5,0-4.5,2-4.5,4.5S26.5,30.2,29,30.2z"/>
<path class="st0" d="M21.7,38.7c1.2-2.9,4-4.9,7.3-4.9s6.1,2,7.3,4.8"/>
<path class="st0" d="M3.6,9.2c0,4.7,3.8,8.4,8.4,8.4h4.8l2,2l1.8-2h4.7c4.6,0,8.4-3.8,8.4-8.4c0-4.7-3.8-8.4-8.4-8.4H11.9
	C7.3,0.8,3.6,4.5,3.6,9.2z"/>
</svg>
